<?xml version="1.0" encoding="utf-8"?>
<!-- Generator: Adobe Illustrator 28.2.0, SVG Export Plug-In . SVG Version: 6.00 Build 0)  -->
<svg version="1.1" id="Layer_1" xmlns="http://www.w3.org/2000/svg" xmlns:xlink="http://www.w3.org/1999/xlink" x="0px" y="0px"
	 viewBox="0 0 218.2 218.2" style="enable-background:new 0 0 218.2 218.2;" xml:space="preserve">
<style type="text/css">
	.st0{fill:#2164F3;}
	.st1{fill:#FFFFFF;}
</style>
<g>
	<circle class="st0" cx="109.1" cy="109.1" r="109.1"/>
	<g>
		<g>
			<path class="st1" d="M156.4,103.4c-17.3-4.7-43.9-1-66.2,7.5c-13,4.9-24.5,11.4-31.9,18.8c-7.1,7-9.4,14.7-8.5,21.4
				c2.1,16.1,22.6,26.6,39.6,9.6c7.7-7.7,13.9-19,18-29.7l-6.3-5.6l-4.9,1.7c-2.7,6.6-7.8,17.5-14.2,24.5
				c-13.7,14.9-29.5-0.2-15.7-13.9c5.4-5.3,13.5-9.7,19.3-12.4c13.4-6.3,30.1-10.7,44.9-12.1c6.8-0.5,17-0.8,24.6,1.5
				c15.1,4.9,10.9,20.9-1.3,20.7c-10.2-0.2-24.3-9.6-31.5-15.3c-4.8,1-9.7,1.9-14.5,3.1c10.4,9.4,24,18.9,37.1,22.4
				c4.5,1.3,8.6,1.5,12.5,1.3C179.9,144.6,186,111.3,156.4,103.4L156.4,103.4z"/>
			<path class="st1" d="M98,102c0.5-0.2,1.1-0.3,1.5-0.5c0.8-0.2,1.7-0.5,2.5-0.7c-0.3-0.3-0.5-0.5-0.8-1
				c-8.7-10.5-24.7-33.9-14.4-42.9c5.8-5,13.2-2,16.2,4.3c4.3,9.2,3.3,25.2,2,34l0.4,0.4l3,3.6l8.2-1.7c0.7-4.6,1.3-9.4,1.3-14.3
				c0.2-7.1-0.3-14.1-2.1-20.4c-7.5-27.7-38.5-24.3-43.3-3.9c-1.1,4.6-0.7,9.7,0.7,15.3c2.8,10.6,9.5,21.3,16.7,30.4L98,102L98,102z
				"/>
		</g>
	</g>
</g>
</svg>
