<?xml version="1.0" encoding="utf-8"?>
<!-- Generator: Adobe Illustrator 28.2.0, SVG Export Plug-In . SVG Version: 6.00 Build 0)  -->
<svg version="1.1" id="Layer_1" xmlns="http://www.w3.org/2000/svg" xmlns:xlink="http://www.w3.org/1999/xlink" x="0px" y="0px"
	 viewBox="0 0 218.2 218.2" style="enable-background:new 0 0 218.2 218.2;" xml:space="preserve">
<style type="text/css">
	.st0{fill:#2164F3;}
	.st1{fill:#FFFFFF;}
</style>
<circle class="st0" cx="109.1" cy="109.1" r="109.1"/>
<g>
	<g>
		<path class="st1" d="M157.2,106.1c-19.2-5.2-48.8-1.1-73.6,8.3c-14.4,5.4-27.2,12.7-35.4,20.9c-7.9,7.8-10.4,16.3-9.4,23.8
			c2.3,17.9,25.1,29.6,44,10.7c8.6-8.6,15.4-21.1,20-33l-7-6.2l-5.4,1.9c-3,7.3-8.7,19.5-15.8,27.2c-15.2,16.6-32.8-0.2-17.5-15.5
			c6-5.9,15-10.8,21.4-13.8c14.9-7,33.4-11.9,49.9-13.4c7.6-0.6,18.9-0.9,27.3,1.7c16.8,5.4,12.1,23.2-1.4,23
			c-11.3-0.2-27-10.7-35-17c-5.3,1.1-10.8,2.1-16.1,3.5c11.6,10.4,26.7,21,41.2,24.9c5,1.4,9.6,1.7,13.9,1.4
			C183.3,151.8,190.1,114.9,157.2,106.1L157.2,106.1z"/>
		<path class="st1" d="M92.3,104.5c0.6-0.2,1.2-0.3,1.7-0.6c0.9-0.2,1.9-0.6,2.8-0.8c-0.3-0.3-0.6-0.6-0.9-1.1
			c-9.7-11.7-27.5-37.7-16-47.7c6.5-5.6,14.7-2.2,18,4.8c4.8,10.2,3.7,28,2.2,37.8l0.5,0.5l3.3,4l9.1-1.9c0.8-5.1,1.4-10.5,1.4-15.9
			c0.2-7.9-0.3-15.7-2.3-22.7c-8.3-30.8-42.8-27-48.1-4.3c-1.2,5.1-0.8,10.8,0.8,17c3.1,11.8,10.6,23.7,18.6,33.8L92.3,104.5
			L92.3,104.5z"/>
	</g>
</g>
</svg>
