<?xml version="1.0" encoding="utf-8"?>
<!-- Generator: Adobe Illustrator 28.2.0, SVG Export Plug-In . SVG Version: 6.00 Build 0)  -->
<svg version="1.1" id="Layer_1" xmlns="http://www.w3.org/2000/svg" xmlns:xlink="http://www.w3.org/1999/xlink" x="0px" y="0px"
	 viewBox="0 0 225 225" style="enable-background:new 0 0 225 225;" xml:space="preserve">
<style type="text/css">
	.st0{fill:#2164F3;}
	.st1{fill:#FFFFFF;}
</style>
<g>
	<circle class="st0" cx="112.5" cy="112.5" r="112.5"/>
	<g>
		<path class="st1" d="M160.4,105.3c-17.4-4.7-44.1-1-66.5,7.5c-13,4.9-24.6,11.5-32,18.9c-7.1,7.1-9.4,14.8-8.5,21.6
			c2.1,16.2,22.7,26.7,39.8,9.7c7.8-7.8,13.9-19.1,18.1-29.8l-6.3-5.6l-4.9,1.7c-2.7,6.6-7.9,17.6-14.3,24.6
			c-13.7,15-29.7-0.2-15.8-14c5.4-5.3,13.6-9.8,19.4-12.5c13.5-6.3,30.2-10.8,45.1-12.1c6.9-0.6,17.1-0.8,24.7,1.6
			c15.2,4.9,10.9,21-1.3,20.8c-10.2-0.2-24.4-9.7-31.7-15.4c-4.8,1-9.8,1.9-14.6,3.2c10.5,9.4,24.1,19,37.3,22.5
			c4.5,1.2,8.7,1.6,12.6,1.2C184,146.7,190.1,113.3,160.4,105.3L160.4,105.3z"/>
		<path class="st1" d="M101.7,103.9c0.5-0.2,1.1-0.3,1.6-0.5c0.8-0.2,1.7-0.5,2.5-0.7c-0.3-0.3-0.5-0.6-0.8-1
			c-8.8-10.6-24.9-34.1-14.5-43.1c5.9-5.1,13.3-2,16.3,4.3c4.4,9.2,3.3,25.3,2,34.2l0.4,0.4l3,3.6l8.2-1.7c0.7-4.6,1.2-9.5,1.3-14.4
			c0.2-7.1-0.3-14.2-2.1-20.5c-7.5-27.9-38.7-24.4-43.5-3.9c-1.1,4.6-0.7,9.8,0.7,15.4c2.8,10.7,9.6,21.5,16.8,30.6L101.7,103.9
			L101.7,103.9z"/>
	</g>
</g>
</svg>
