<?xml version="1.0" encoding="utf-8"?>
<!-- Generator: Adobe Illustrator 28.2.0, SVG Export Plug-In . SVG Version: 6.00 Build 0)  -->
<svg version="1.1" id="Layer_1" xmlns="http://www.w3.org/2000/svg" xmlns:xlink="http://www.w3.org/1999/xlink" x="0px" y="0px"
	 viewBox="0 0 309.6 309.6" style="enable-background:new 0 0 309.6 309.6;" xml:space="preserve">
<style type="text/css">
	.st0{fill:#63B1FC;}
	.st1{fill:#2164F3;}
</style>
<g>
	<path class="st0" d="M260.6,148.1c-42.3-11.4-107.2-2.5-161.7,18.1c-31.7,12-59.8,27.9-77.9,46.1C3.9,229.6-1.7,248.4,0.4,264.8
		c5.2,39.4,55.2,65.1,96.8,23.7c19.1-19,33.7-46.5,44-72.6L126,202.3l-11.8,4.2c-6.5,16.2-19.2,42.9-34.7,59.8
		c-33.3,36.4-72.3-0.5-38.5-34c13.1-13,33-23.8,47.1-30.4c32.9-15.4,73.4-26.3,109.6-29.4c16.7-1.4,41.7-1.9,60,4
		c36.9,12,26.6,51.1-3.2,50.6c-24.9-0.4-59.3-23.6-77.1-37.5c-11.7,2.5-23.8,4.7-35.4,7.8c25.5,22.8,58.7,46.2,90.8,54.7
		c10.9,2.9,21.2,4,30.7,2.9C317.8,248.8,332.7,167.6,260.6,148.1L260.6,148.1z"/>
	<path class="st1" d="M117.6,144.8c1.3-0.4,2.7-0.8,4-1.2c2-0.6,4.1-1.2,6.2-1.7c-0.7-0.8-1.3-1.6-2-2.4
		c-21.3-25.7-60.6-83-35.2-104.9c14.3-12.3,32.4-4.8,39.7,10.4c10.7,22.3,8,61.5,4.9,83.2l0.9,1l7.4,8.7l19.8-4.1
		c1.7-11.3,2.8-23.2,3.2-35c0.5-17.2-0.8-34.5-5-49.9C143.1-19,67.2-10.4,55.6,39.5c-2.6,11.3-1.8,23.9,1.8,37.4
		c6.9,26,23.5,52.4,40.9,74.4L117.6,144.8L117.6,144.8z"/>
</g>
</svg>
