<?xml version="1.0" encoding="utf-8"?>
<!-- Generator: Adobe Illustrator 28.2.0, SVG Export Plug-In . SVG Version: 6.00 Build 0)  -->
<svg version="1.1" id="Layer_1" xmlns="http://www.w3.org/2000/svg" xmlns:xlink="http://www.w3.org/1999/xlink" x="0px" y="0px"
	 viewBox="0 0 230.8 230.8" style="enable-background:new 0 0 230.8 230.8;" xml:space="preserve">
<g>
	<path d="M194.3,110.4c-31.5-8.5-79.9-1.8-120.5,13.5c-23.6,8.9-44.6,20.8-58.1,34.4c-12.8,12.9-17,26.9-15.4,39.1
		c3.9,29.4,41.2,48.5,72.2,17.7c14.2-14.2,25.2-34.7,32.8-54.1l-11.4-10.1l-8.8,3.1c-4.8,12.1-14.3,32-25.9,44.6
		c-24.9,27.2-53.9-0.4-28.7-25.3c9.8-9.7,24.6-17.8,35.1-22.7c24.5-11.5,54.7-19.6,81.7-21.9c12.5-1.1,31.1-1.4,44.7,3
		c27.5,8.9,19.8,38.1-2.4,37.7c-18.6-0.3-44.2-17.6-57.5-28c-8.8,1.8-17.8,3.5-26.4,5.8c19,17,43.8,34.4,67.7,40.8
		c8.1,2.2,15.8,3,22.9,2.1C237,185.5,248.1,125,194.3,110.4L194.3,110.4z"/>
	<path d="M87.7,108c1-0.3,2-0.6,3-0.9c1.5-0.4,3.1-0.9,4.6-1.3c-0.5-0.6-1-1.2-1.5-1.8C77.9,84.8,48.6,42.1,67.5,25.7
		c10.6-9.2,24.1-3.6,29.6,7.8c8,16.6,6,45.9,3.6,62l0.7,0.8l5.5,6.5l14.8-3c1.2-8.4,2.1-17.3,2.4-26.1c0.4-12.9-0.6-25.7-3.7-37.2
		c-13.7-50.7-70.3-44.2-78.9-7c-2,8.4-1.3,17.9,1.3,27.9c5.2,19.4,17.5,39.1,30.5,55.5L87.7,108L87.7,108z"/>
</g>
</svg>
