<?xml version="1.0" encoding="utf-8"?>
<!-- Generator: Adobe Illustrator 28.2.0, SVG Export Plug-In . SVG Version: 6.00 Build 0)  -->
<svg version="1.1" id="Layer_1" xmlns="http://www.w3.org/2000/svg" xmlns:xlink="http://www.w3.org/1999/xlink" x="0px" y="0px"
	 viewBox="0 0 54.7 37.5" style="enable-background:new 0 0 54.7 37.5;" xml:space="preserve">
<style type="text/css">
	.st0{fill:#5B5B5B;}
</style>
<g>
	<path class="st0" d="M14.9,3.1h6.3l15,34.4h-8.5l-3-7.3H19c-4.7,0-9,2.9-10.7,7.3l0,0H0L14.9,3.1z M17.8,13.2l-4.2,10.7H22
		L17.8,13.2z"/>
	<path class="st0" d="M42.3,16.3l-2.8-0.4v21.6H47V19.4C46.2,17.7,44.7,16.7,42.3,16.3z"/>
</g>
<g>
	<path class="st0" d="M48.5,7.6c0.8,3.9,2.3,5.5,6.1,6.1c-3.6,0.5-5.6,2.5-6.1,6.2c-0.5-3.6-2.5-5.6-6.1-6.2
		C46.1,13.2,48.1,11.2,48.5,7.6z"/>
	<path class="st0" d="M45.7,13.7c1.2,0.7,2.1,1.6,2.8,2.8c0.6-1.2,1.6-2.2,2.8-2.8c-1.2-0.6-2.1-1.5-2.8-2.8
		C47.9,12.2,47,13.1,45.7,13.7z"/>
</g>
<path class="st0" d="M39.3,4.7C42,4.2,43.6,2.7,43.9,0c0.4,2.7,1.9,4.2,4.6,4.6c-2.7,0.4-4.2,2-4.6,4.7C43.5,6.6,42,5.1,39.3,4.7z"
	/>
<path class="st0" d="M41.9,9.5c-1.7,0.6-2,0.9-2.5,2.5c-0.2-0.6-0.4-1.2-0.8-1.6c-0.4-0.4-0.9-0.6-1.5-0.8c1.3-0.3,2-1,2.3-2.3
	C39.7,8.5,40.5,9.3,41.9,9.5z"/>
</svg>
