<?xml version="1.0" encoding="utf-8"?>
<!-- Generator: Adobe Illustrator 28.2.0, SVG Export Plug-In . SVG Version: 6.00 Build 0)  -->
<svg version="1.1" id="Layer_1" xmlns="http://www.w3.org/2000/svg" xmlns:xlink="http://www.w3.org/1999/xlink" x="0px" y="0px"
	 viewBox="0 0 65.3 68.5" style="enable-background:new 0 0 65.3 68.5;" xml:space="preserve">
<style type="text/css">
	.st0{fill:#5B5B5B;}
</style>
<g>
	<path class="st0" d="M33.2,34.1h6.3l15,34.4h-8.5l-3-7.3h-5.5c-4.7,0-9,2.9-10.7,7.3l0,0h-8.4L33.2,34.1z M36.1,44.1l-4.2,10.7h8.4
		L36.1,44.1z"/>
	<path class="st0" d="M57.7,34.1h7.6v34.4h-7.6V34.1z"/>
</g>
<path class="st0" d="M24.3,0c1.5,9.6,7,14.9,16.6,16.2c-9.5,1.6-15.1,7.1-16.6,16.7c-1.6-9.6-7.1-15-16.5-16.7
	C17.2,14.8,22.8,9.6,24.3,0z"/>
<path class="st0" d="M0,34.1c4.7-1.2,7.3-4.1,8.3-8.6c0.9,4.6,3.5,7.5,8.2,8.6c-4.6,1.2-7.3,4-8.2,8.6C7.2,38.2,4.6,35.3,0,34.1z"/>
</svg>
