<?xml version="1.0" encoding="utf-8"?>
<!-- Generator: Adobe Illustrator 28.2.0, SVG Export Plug-In . SVG Version: 6.00 Build 0)  -->
<svg version="1.1" id="Layer_1" xmlns="http://www.w3.org/2000/svg" xmlns:xlink="http://www.w3.org/1999/xlink" x="0px" y="0px"
	 viewBox="0 0 91.4 91.3" style="enable-background:new 0 0 91.4 91.3;" xml:space="preserve">
<style type="text/css">
	.st0{fill:#5B5B5B;}
</style>
<path class="st0" d="M41.1,91.3c-8,0-16,0.1-24,0c-10-0.1-16.8-6.5-17-16.4c-0.2-16.5-0.2-33,0-49.5c0.1-10,6.7-16.4,16.8-16.7
	c6.7-0.2,13.3,0,20,0c2.5,0,5,0.5,5.1,3.5c0.1,3.3-2.5,3.9-5.2,3.9c-6.3,0-12.7-0.1-19,0c-7.1,0.1-10.5,3.4-10.5,10.4
	C7.2,42.2,7.2,58,7.3,73.8c0,6.6,3.5,10.2,10.2,10.3c15.8,0.1,31.7,0.1,47.5,0c6.9,0,10.4-3.7,10.4-10.6c0.1-7.5,0-15,0-22.5
	c0-2.6,0.1-5.4,3.5-5.6c3.5-0.1,3.6,2.7,3.6,5.3c0,8.2,0.1,16.3,0,24.5c-0.2,9-6.9,15.6-15.9,16c-0.3,0-0.7,0-1,0
	C57.5,91.3,49.3,91.3,41.1,91.3z"/>
<path class="st0" d="M90.1,28.6c-6.7,3.1-14.2,3.9-19.5,9.4c-5.2,5.3-6.2,12.5-8.5,19.3c-2.4-1.1-2.3-2.9-2.6-4.4
	c-2.5-12.2-9.6-19.7-22-22.1c-1.5-0.3-4.1,0-4.2-1.9c-0.1-2.1,2.5-1.9,3.9-2.1c12.4-2.3,19.6-9.7,22.1-21.9C59.8,3.2,59.7,1.4,62,0
	c2.5,6.9,3.4,14.3,8.9,19.6C76.2,24.8,83.4,25.7,90.1,28.6z"/>
<path class="st0" d="M16.1,58.9c10-1.9,15.9-7.3,17.4-17.5c2.2,9.7,7.5,15.7,17.6,17.3c-9.8,2.1-15.6,7.5-17.5,17.6
	C31.8,66.4,26.3,60.5,16.1,58.9z"/>
<path class="st0" d="M83.2,18.2c-1.1-4.6-3.1-6.7-7.5-7.9c4.2-1.4,6.5-3.3,7.4-7.7c1.6,4,3.3,6.5,8.4,7.4
	C86.6,11.4,84.5,13.6,83.2,18.2z"/>
</svg>
