<?xml version="1.0" encoding="utf-8"?>
<!-- Generator: Adobe Illustrator 28.2.0, SVG Export Plug-In . SVG Version: 6.00 Build 0)  -->
<svg version="1.1" id="Layer_1" xmlns="http://www.w3.org/2000/svg" xmlns:xlink="http://www.w3.org/1999/xlink" x="0px" y="0px"
	 viewBox="0 0 218.2 218.1" style="enable-background:new 0 0 218.2 218.1;" xml:space="preserve">
<g>
	<g>
		<path d="M183.7,104.4c-29.8-8.1-75.6-1.7-114,12.9c-22.3,8.4-42.2,19.7-54.8,32.4C2.7,161.8-1.2,175,0.3,186.6
			c3.6,27.8,38.9,45.8,68.2,16.6c13.4-13.4,23.8-32.7,31-51.1l-10.8-9.6l-8.4,2.9c-4.6,11.3-13.5,30.2-24.5,42.2
			c-23.5,25.7-50.9-0.3-27.1-24c9.3-9.1,23.3-16.8,33.2-21.4c23.1-10.8,51.7-18.5,77.3-20.7c11.8-1,29.3-1.4,42.3,2.7
			c26,8.4,18.7,36-2.2,35.6c-17.5-0.3-41.8-16.6-54.3-26.4c-8.2,1.7-16.8,3.3-25,5.5c18,16.1,41.3,32.6,63.9,38.6
			c7.7,2.1,14.9,2.7,21.6,2.1C224.1,175.3,234.6,118.1,183.7,104.4L183.7,104.4z"/>
		<path d="M83.1,102c0.9-0.3,1.9-0.5,2.7-0.9c1.4-0.3,2.9-0.9,4.3-1.2c-0.5-0.5-0.9-1-1.4-1.7C73.7,80,46.1,39.8,63.9,24.3
			c10.1-8.7,22.8-3.4,27.9,7.4c7.5,15.8,5.7,43.4,3.4,58.6l0.7,0.7l5.1,6.2l14.1-2.9c1.2-7.9,2.1-16.3,2.2-24.7
			c0.3-12.2-0.5-24.3-3.6-35.1c-12.9-47.8-66.3-41.8-74.5-6.7c-1.9,7.9-1.2,16.8,1.2,26.4c4.8,18.3,16.5,36.8,28.8,52.4L83.1,102
			L83.1,102z"/>
	</g>
</g>
</svg>
