<?xml version="1.0" encoding="utf-8"?>
<!-- Generator: Adobe Illustrator 28.2.0, SVG Export Plug-In . SVG Version: 6.00 Build 0)  -->
<svg version="1.1" id="Layer_1" xmlns="http://www.w3.org/2000/svg" xmlns:xlink="http://www.w3.org/1999/xlink" x="0px" y="0px"
	 viewBox="0 0 384.3 184.3" style="enable-background:new 0 0 384.3 184.3;" xml:space="preserve">
<style type="text/css">
	.st0{fill-rule:evenodd;clip-rule:evenodd;fill:#FFFFFF;}
	.st1{fill:#FFFFFF;}
</style>
<g>
	<path class="st0" d="M250,19c-9.3-7.2-20.2-12.6-32.2-15.9c-12-3.2-24.2-3.9-35.8-2.4c-24.2,3.2-46.3,15.9-61.2,35.3
		c-7.2,9.3-12.6,20.2-15.9,32.2c-3.2,12-3.9,24.2-2.4,35.8c3.2,24.2,15.9,46.3,35.3,61.2c9.3,7.2,20.2,12.6,32.2,15.9
		c12,3.2,24.2,3.9,35.8,2.4c24.2-3.2,46.3-15.9,61.2-35.3c7.2-9.3,12.6-20.2,15.9-32.2c3.2-12,3.9-24.2,2.4-35.8
		C282.1,56,269.3,33.9,250,19L250,19z M222.9,26.9c4.5,2.3,6.9,3.3,10.7,6.4l0,0c1.1,0.9,1.3,2.5,0.3,3.6c-0.1,0.1-0.1,0.1-0.2,0.2
		L138.9,132c-1,1-2.6,1-3.6,0c-0.1-0.1-0.2-0.2-0.2-0.3c-1.2-1.5-2.4-3-3.5-4.6c-6.3-9.1-8.6-17.9-10.1-29
		c-1.2-8.8-0.6-18.1,1.8-27.2c2.5-9.1,6.6-17.4,12-24.5c11.3-14.7,28-24.4,46.4-26.8c8.8-1.2,18.1-0.6,27.2,1.8
		C213.8,22.8,218.5,24.7,222.9,26.9L222.9,26.9z M248.9,52.3c1-1,2.6-1,3.6,0c0.1,0.1,0.2,0.2,0.2,0.3c1.2,1.5,2.4,3,3.5,4.6
		c6.3,9.1,8.6,17.9,10.1,29c1.2,8.8,0.6,18.1-1.8,27.2c-2.5,9.1-6.6,17.4-12,24.5c-11.3,14.7-28,24.4-46.4,26.8
		c-8.8,1.2-18.1,0.6-27.2-1.8c-4.9-1.3-9.6-3.1-14-5.4c-4.5-2.3-6.9-3.3-10.7-6.4l0,0c-1.1-0.9-1.3-2.5-0.3-3.6
		c0.1-0.1,0.1-0.1,0.2-0.2L248.9,52.3z"/>
	<g>
		<path class="st1" d="M0,135.2v-21.5L38.3,30h26.5l-37.3,82.6h55.8v22.6H0z M50.2,154.3V81.1h23.4v73.2H50.2z"/>
	</g>
	<g>
		<path class="st1" d="M347.8,155.6c-7.5,0-14.1-1.4-20-4.1c-5.9-2.7-10.5-6.7-14-11.9s-5.4-11.5-5.8-18.8h24.2
			c0.6,3.8,2,6.8,4.3,8.9c2.3,2.1,5.2,3.2,8.8,3.2c4.4,0,7.9-1.2,10.3-3.7c2.4-2.5,3.6-6,3.6-10.5v-2.9c0-4.7-1-8.4-2.9-10.9
			c-2-2.6-4.8-3.8-8.4-3.8h-10.5V78.4h10.5c3,0,5.3-1.1,6.9-3.4c1.6-2.3,2.4-5.4,2.4-9.4v-2.1c0-3.8-0.9-6.8-2.7-8.8
			c-1.8-2.1-4.3-3.1-7.6-3.1c-3.2,0-5.9,1.2-8.2,3.6c-2.3,2.4-3.8,5.8-4.6,10.2h-24.1c1-11.6,5-20.5,12.1-26.9
			c7-6.4,15.6-9.6,25.6-9.6c11,0,19.5,2.8,25.5,8.4c6,5.6,9,13.6,9,23.9v3.8c0,5.8-1.5,10.8-4.4,15c-2.9,4.3-7,7.5-12.4,9.6
			c6,1.4,10.6,4.5,13.9,9.4c3.3,4.9,4.9,11.1,4.9,18.7v3.8c0,10.9-3.2,19.3-9.6,25.3C368.4,152.6,359.4,155.6,347.8,155.6z"/>
	</g>
</g>
</svg>
