<?xml version="1.0" encoding="utf-8"?>
<!-- Generator: Adobe Illustrator 28.2.0, SVG Export Plug-In . SVG Version: 6.00 Build 0)  -->
<svg version="1.1" id="Layer_1" xmlns="http://www.w3.org/2000/svg" xmlns:xlink="http://www.w3.org/1999/xlink" x="0px" y="0px"
	 viewBox="0 0 322.31 380.75" style="enable-background:new 0 0 322.31 380.75;" xml:space="preserve">
<style type="text/css">
	.st0{fill:#FFFFFF;}
</style>
<g>
	<path class="st0" d="M120.02,210.99c0-22.98-0.14-45.96,0.05-68.93c0.11-14.37,6.39-20.89,20.69-21.21
		c14.64-0.33,29.3-0.29,43.94,0.08c12.53,0.32,19.19,6.85,19.36,19.4c0.38,27.45,0.26,54.91,0.31,82.37
		c0.03,17.81,0.01,35.62-0.01,53.43c0,2.49-0.07,5-0.31,7.48c-1.08,11.01-6.49,16.79-17.48,17.44c-16.11,0.96-32.28,1.25-48.39-0.06
		c-12.25-0.99-17.98-7.38-18.09-20.07C119.88,257.61,120.02,234.3,120.02,210.99z M173.83,211.47c0.01,0,0.02,0,0.02,0
		c0-18.32-0.05-36.64,0.02-54.96c0.05-13.62,0.12-13.62-13.44-13.55c-9.52,0.05-10.24,0.71-10.25,10.18
		c-0.02,37.31-0.04,74.61,0,111.92c0.01,14.03,0.08,14.03,13.89,13.96c9.09-0.04,9.74-0.7,9.75-10.09
		C173.84,249.78,173.83,230.63,173.83,211.47z"/>
	<path class="st0" d="M294.24,0.1c-13.43,40.73-26.67,80.88-39.91,121.03c1.43,1.35,2.99,0.76,4.37,0.77
		c19.48,0.04,38.97,0.15,58.45-0.1c4.28-0.05,5.41,1.28,5.11,5.33c-0.34,4.64-0.25,9.33-0.01,13.98c0.17,3.33-0.67,5.16-4.33,4.49
		c-5.28-0.96-6.67,1.3-6.41,6.42c0.43,8.3-0.06,16.64,0.14,24.96c0.08,3.3-0.98,4.29-4.23,4.2c-7.49-0.22-14.99-0.19-22.48-0.03
		c-2.88,0.06-3.71-0.96-3.67-3.74c0.13-8.82-0.22-17.66,0.14-26.47c0.19-4.58-1.42-5.43-5.66-5.36c-16.15,0.26-32.3-0.03-48.45,0.19
		c-4.02,0.05-5.1-0.92-5.44-5.14c-1.15-14.28,5.45-26.53,9.7-39.31c10.81-32.48,22.24-64.75,33.24-97.16c1.05-3.1,2.4-4.17,5.55-4.1
		C278.12,0.21,285.9,0.1,294.24,0.1z"/>
	<path class="st0" d="M66.53,121.93c9.99,0.01,19.99,0.12,29.98-0.06c3.16-0.06,4.47,0.74,4.31,4.12
		c-0.24,5.15-0.27,10.33,0.04,15.47c0.21,3.35-0.87,4.3-4.15,4.27c-6.7-0.05-6.71,0.13-6.71,6.97c0,8.33-0.08,16.66,0.06,24.98
		c0.04,2.59-0.75,3.48-3.39,3.43c-7.66-0.14-15.32-0.18-22.98,0.04c-3.18,0.09-3.91-1.08-3.86-4.04c0.15-8.99-0.1-17.98,0.09-26.97
		c0.07-3.33-0.69-4.55-4.34-4.51c-16.81,0.19-33.63-0.09-50.45,0.12c-4.03,0.05-4.73-1.17-5.02-5.02
		c-0.71-9.3,2.15-17.67,5.09-26.18C17.81,78.12,30.38,41.68,42.74,5.17c1.37-4.03,3.23-5.37,7.34-5.12
		c5.81,0.34,11.67,0.34,17.48-0.02c4.57-0.28,4.74,1.24,3.47,5.05C59.16,40.69,47.44,76.35,35.69,112
		c-3.28,9.95-3.26,9.95,7.36,9.93C50.88,121.91,58.71,121.93,66.53,121.93z"/>
	<path class="st0" d="M160.91,317.82c41.04,0.43,77.78,12.51,108.82,40.18c3.03,2.7,3.48,4.31,0.27,7.24
		c-4.79,4.36-9.16,9.2-13.53,14c-1.73,1.89-2.81,2.04-4.8,0.25c-31.73-28.52-69.34-37.54-110.77-32.31
		c-26.02,3.28-49.29,13.54-68.75,31.44c-3.07,2.82-4.46,2.33-6.87-0.39c-4.19-4.74-8.56-9.34-13.19-13.64
		c-2.6-2.42-2.04-3.76,0.24-5.87c23.09-21.29,50.5-33.49,81.21-38.72C142.57,318.45,151.69,317.63,160.91,317.82z"/>
</g>
</svg>
